<?xml version="1.0" encoding="utf-8"?>
<!-- Generator: Adobe Illustrator 28.0.0, SVG Export Plug-In . SVG Version: 6.00 Build 0)  -->
<svg version="1.1" id="Layer_1" xmlns="http://www.w3.org/2000/svg" xmlns:xlink="http://www.w3.org/1999/xlink" x="0px" y="0px"
	 viewBox="0 0 600 600" style="enable-background:new 0 0 600 600;" xml:space="preserve">
<style type="text/css">
	.st0{fill:#ED1B68;}
</style>
<path class="st0" d="M415.4,130.9c33.3,27.2,59.3,61.6,74,101c14.8,39.6,18.3,83.9,4.2,121.3c-14.1,37.2-45.9,67.2-81,89.2
	c-35.1,22.3-73.6,36.3-112.7,37.2c-39.4,1.2-79.4-10.8-109.4-34.4c-30.2-23.7-50.4-59.3-60.7-96.5c-10.3-37.5-10.8-76.8-0.2-113.4
	c10.5-36.8,32.3-70.7,62.5-98.9c30.5-28.3,69.3-50.6,109.4-51.8C341.4,83.6,382.1,103.8,415.4,130.9z"/>
</svg>
