<?xml version="1.0" encoding="utf-8"?>
<!-- Generator: Adobe Illustrator 28.0.0, SVG Export Plug-In . SVG Version: 6.00 Build 0)  -->
<svg version="1.1" id="Layer_1" xmlns="http://www.w3.org/2000/svg" xmlns:xlink="http://www.w3.org/1999/xlink" x="0px" y="0px"
	 viewBox="0 0 600 600" style="enable-background:new 0 0 600 600;" xml:space="preserve">
<style type="text/css">
	.st0{fill:none;stroke:#000000;stroke-width:14;stroke-linecap:round;stroke-linejoin:round;stroke-miterlimit:10;}
</style>
<g>
	<path d="M291.9,146.6c14.5,0,23.1,8.2,23.1,20.5c0,21.1-34.7,29.2-34.7,38H311c2.8,0,5.1,2.3,5.1,5.1s-2.3,5.1-5.1,5.1h-38.2
		c-2.8,0-5.1-2.3-5.1-5.1c0-22.1,35.9-24.4,35.9-43.1c0-5.6-4.1-10.5-11.7-10.5c-6.2,0-9.6,3.4-11.4,7.2c-1.1,2.1-2.9,3.2-5,3.2
		c-3,0-5.4-2.4-5.4-5.4c0-0.8,0.1-1.4,0.5-2.3C273.8,152,280.9,146.6,291.9,146.6z"/>
	<path d="M385.8,181.6c0,24-8.3,35.1-26.1,35.1c-18,0-26.2-11.1-26.2-35.1c0-23.9,8.2-35,26.2-35
		C377.5,146.6,385.8,157.7,385.8,181.6z M374.4,181.6c0-17.4-4.4-25-14.7-25c-10.3,0-14.8,7.6-14.8,25c0,17.6,4.5,25,14.8,25
		S374.4,199.2,374.4,181.6z"/>
	<path d="M291.9,232c14.5,0,23.1,8.2,23.1,20.5c0,21.1-34.7,29.2-34.7,38H311c2.8,0,5.1,2.3,5.1,5.1s-2.3,5.1-5.1,5.1h-38.2
		c-2.8,0-5.1-2.3-5.1-5.1c0-22.1,35.9-24.4,35.9-43.1c0-5.6-4.1-10.5-11.7-10.5c-6.2,0-9.6,3.4-11.4,7.2c-1.1,2.1-2.9,3.2-5,3.2
		c-3,0-5.4-2.4-5.4-5.4c0-0.8,0.1-1.4,0.5-2.3C273.8,237.4,280.9,232,291.9,232z"/>
	<path d="M341.1,243.6c-2.8,0-5.1-2.3-5.1-5.1s2.3-5.1,5.1-5.1h32c2.8,0,5.1,2.3,5.1,5.1c0,1.1-0.3,2.3-1.3,3.4l-14.6,16.5
		c14.1,1.6,18.4,11.4,18.4,22c0,13.7-8.3,21.6-24.6,21.6c-10.4,0-18.6-5-22.9-11.1c-0.6-0.9-0.9-1.9-0.9-3c0-2.9,2.4-5.3,5.3-5.3
		c1.8,0,3.1,0.7,4.8,2.6c3.4,3.9,7.2,6.8,13.7,6.8c9,0,13.2-4.5,13.2-11.6c0-7-2.9-12-11.9-12h-6.2c-3.1,0-5.4-2.3-5.4-5.2
		c0-1.6,0.5-2.5,1.3-3.5l14.1-16.1L341.1,243.6L341.1,243.6z"/>
</g>
<circle class="st0" cx="326.8" cy="223" r="136"/>
</svg>
