<?xml version="1.0" encoding="utf-8"?>
<!-- Generator: Adobe Illustrator 28.0.0, SVG Export Plug-In . SVG Version: 6.00 Build 0)  -->
<svg version="1.1" id="Layer_1" xmlns="http://www.w3.org/2000/svg" xmlns:xlink="http://www.w3.org/1999/xlink" x="0px" y="0px"
	 viewBox="0 0 600 600" style="enable-background:new 0 0 600 600;" xml:space="preserve">
<style type="text/css">
	.st0{fill:none;stroke:#000000;stroke-width:14;stroke-linecap:round;stroke-linejoin:round;stroke-miterlimit:10;}
</style>
<path class="st0" d="M357.5,85.1c112.2,7.4,201,100.8,201,214.9s-88.7,207.5-201,214.9"/>
<path class="st0" d="M127.7,300c0-70.4,33.8-133,86.1-172.3c-28.4,0-55.3,6.9-78.9,19.1C79.5,175.5,41.6,233.3,41.6,300
	c0,66.7,37.9,124.5,93.4,153.2c23.6,12.2,50.5,19.1,78.9,19.1C161.5,433,127.7,370.4,127.7,300z"/>
<path class="st0" d="M357.5,85.1c-4.8-0.3-9.6-0.5-14.4-0.5c-48.5,0-93.2,16-129.2,43.1c0,0,0,0,0,0c22.8,0,44.7,4.5,64.6,12.5
	c20-8.1,41.8-12.5,64.6-12.5c28.4,0,55.3,6.9,78.9,19.1c55.4,28.6,93.4,86.5,93.4,153.2c0,66.7-37.9,124.5-93.4,153.2
	c-23.6,12.2-50.5,19.1-78.9,19.1c-22.8,0-44.7-4.5-64.6-12.5c-20,8.1-41.8,12.5-64.6,12.5c0,0,0,0,0,0c36,27,80.7,43.1,129.2,43.1
	c4.8,0,9.6-0.2,14.4-0.5c112.2-7.4,201-100.8,201-214.9S469.7,92.5,357.5,85.1z"/>
<path class="st0" d="M192.3,216.6c19-34.3,49.5-61.5,86.2-76.3c-20-8.1-41.8-12.5-64.6-12.5c0,0,0,0,0,0
	C161.5,167,127.7,229.6,127.7,300C127.7,259.9,155.2,226.1,192.3,216.6z"/>
<path class="st0" d="M278.5,459.7c-36.7-14.9-67.1-42-86.2-76.3c-37.1-9.6-64.6-43.3-64.6-83.4c0,70.4,33.8,133,86.1,172.3
	c0,0,0,0,0,0C236.7,472.3,258.5,467.8,278.5,459.7z"/>
<path class="st0" d="M192.3,383.4c-13.7-24.7-21.5-53.2-21.5-83.4s7.8-58.7,21.5-83.4c-37.1,9.6-64.6,43.3-64.6,83.4
	C127.7,340.1,155.2,373.9,192.3,383.4z"/>
<path class="st0" d="M422,146.8c-23.6-12.2-50.5-19.1-78.9-19.1c-22.8,0-44.7,4.5-64.6,12.5c18.6,7.5,35.6,18.2,50.3,31.3
	c4.7-0.5,9.5-0.8,14.4-0.8c71.4,0,129.2,57.9,129.2,129.2c0,71.4-57.9,129.2-129.2,129.2c-4.9,0-9.6-0.3-14.4-0.8
	c-14.7,13.2-31.7,23.8-50.3,31.3c20,8.1,41.8,12.5,64.6,12.5c28.4,0,55.3-6.9,78.9-19.1c55.4-28.6,93.4-86.5,93.4-153.2
	C515.4,233.3,477.4,175.5,422,146.8z"/>
<path class="st0" d="M242.6,218.8c20.9-25.8,51.4-43.3,86.1-47.2c-14.7-13.2-31.7-23.8-50.3-31.3c-36.7,14.9-67.1,42-86.2,76.3
	c6.9-1.8,14.1-2.7,21.5-2.7C223.9,213.9,233.6,215.6,242.6,218.8z"/>
<path class="st0" d="M242.6,381.2c-9,3.2-18.7,4.9-28.7,4.9c-7.4,0-14.7-0.9-21.5-2.7c19,34.3,49.5,61.5,86.2,76.3
	c18.6-7.5,35.6-18.2,50.3-31.3C294,424.6,263.5,407,242.6,381.2z"/>
<path class="st0" d="M242.6,381.2c-18-22.2-28.7-50.4-28.7-81.2s10.8-59,28.7-81.2c-9-3.2-18.7-4.9-28.7-4.9
	c-7.4,0-14.7,0.9-21.5,2.7c-13.7,24.7-21.5,53.2-21.5,83.4s7.8,58.7,21.5,83.4c6.9,1.8,14.1,2.7,21.5,2.7
	C223.9,386.1,233.6,384.4,242.6,381.2z"/>
<path class="st0" d="M343.1,170.8c-4.9,0-9.6,0.3-14.4,0.8c14.3,12.8,26.5,28,35.9,45c37.1,9.6,64.6,43.3,64.6,83.4
	c0,40.1-27.4,73.9-64.6,83.4c-9.4,16.9-21.6,32.1-35.9,45c4.7,0.5,9.5,0.8,14.4,0.8c71.4,0,129.2-57.9,129.2-129.2
	C472.3,228.6,414.4,170.8,343.1,170.8z"/>
<path class="st0" d="M278.5,243.1c15.8-17.9,38.9-29.2,64.6-29.2c7.4,0,14.7,0.9,21.5,2.7c-9.4-16.9-21.6-32.1-35.9-45
	c-34.7,3.8-65.3,21.4-86.1,47.2C256.6,223.7,268.9,232.2,278.5,243.1z"/>
<path class="st0" d="M364.6,383.4c-6.9,1.8-14.1,2.7-21.5,2.7c-25.7,0-48.8-11.3-64.6-29.2c-9.6,10.9-21.9,19.3-35.9,24.3
	c20.9,25.8,51.4,43.3,86.1,47.2C343,415.6,355.2,400.4,364.6,383.4z"/>
<path class="st0" d="M278.5,356.9c-13.4-15.2-21.5-35.1-21.5-56.9c0-21.8,8.1-41.8,21.5-56.9c-9.6-10.9-21.9-19.3-35.9-24.3
	c-18,22.2-28.7,50.4-28.7,81.2s10.8,59,28.7,81.2C256.6,376.3,268.9,367.8,278.5,356.9z"/>
<path class="st0" d="M364.6,383.4c37.1-9.6,64.6-43.3,64.6-83.4c0-40.1-27.4-73.9-64.6-83.4c13.7,24.7,21.5,53.2,21.5,83.4
	S378.3,358.7,364.6,383.4z"/>
<path class="st0" d="M343.1,343.1c-23.8,0-43.1-19.3-43.1-43.1c0,21.8-8.1,41.8-21.5,56.9c15.8,17.9,38.9,29.2,64.6,29.2
	c7.4,0,14.7-0.9,21.5-2.7c13.7-24.7,21.5-53.2,21.5-83.4C386.1,323.8,366.9,343.1,343.1,343.1z"/>
<path class="st0" d="M278.5,243.1c13.4,15.2,21.5,35.1,21.5,56.9c0-23.8,19.3-43.1,43.1-43.1c23.8,0,43.1,19.3,43.1,43.1
	c0-30.3-7.8-58.7-21.5-83.4c-6.9-1.8-14.1-2.7-21.5-2.7C317.3,213.9,294.2,225.2,278.5,243.1z"/>
<path class="st0" d="M278.5,243.1c-13.4,15.2-21.5,35.1-21.5,56.9c0,21.8,8.1,41.8,21.5,56.9c13.4-15.2,21.5-35.1,21.5-56.9
	C300,278.2,291.9,258.2,278.5,243.1z"/>
<circle class="st0" cx="343.1" cy="300" r="43.1"/>
</svg>
