<?xml version="1.0" encoding="utf-8"?>
<!-- Generator: Adobe Illustrator 28.0.0, SVG Export Plug-In . SVG Version: 6.00 Build 0)  -->
<svg version="1.1" id="Layer_1" xmlns="http://www.w3.org/2000/svg" xmlns:xlink="http://www.w3.org/1999/xlink" x="0px" y="0px"
	 viewBox="0 0 600 600" style="enable-background:new 0 0 600 600;" xml:space="preserve">
<style type="text/css">
	.st0{fill:#DA1C5C;}
</style>
<g>
	<path d="M109.5,101c-8.3,0-11.4,3.9-11.4,7.9c0,13.1,36.5,7,36.5,32c0,12.2-8.6,19.8-25.1,19.8c-11.9,0-21.4-5.9-25.3-12.2
		c-0.5-0.8-0.8-1.8-0.8-2.8c0-3,2.4-5.4,5.3-5.4c2.2,0,3.4,1.2,4.4,2.2c4.2,4.2,9.5,7.6,16.4,7.6c9.1,0,13.5-3,13.5-9.2
		c0-14.6-36.5-7.9-36.5-32c0-9.9,7.1-18.3,23-18.3c10,0,18.7,3.7,22.7,9.4c0.6,0.9,1,2,1,3.2c0,2.9-2.4,5.3-5.4,5.3
		c-1.4,0-2.8-0.8-4.3-2.2C120.4,103.3,115.2,101,109.5,101z"/>
	<path d="M166.9,141.8l-6.1,14.5c-0.9,2.1-2.8,3.8-5.4,3.8c-3.1,0-5.7-2.6-5.7-5.7c0-0.6,0.1-1.4,0.4-2.1l23.6-57.5
		c0.6-1.4,2.2-3.6,5.3-3.6c3.1,0,4.7,2.2,5.3,3.6l23.6,57.5c0.3,0.7,0.4,1.5,0.4,2.1c0,3.1-2.6,5.7-5.7,5.7c-2.6,0-4.5-1.7-5.4-3.8
		l-6.1-14.5H166.9z M171.3,82.6l8.5-10.8c1.4-1.8,4-1.7,6,0.3c2.2,2.1,2,4.5,0.4,6l-9.8,9c-1.7,1.5-3.3,1.2-4.6,0
		C170.2,85.6,170.2,83.8,171.3,82.6z M179,110.2l-8.2,21h16.4L179,110.2z"/>
	<path d="M277,96.9v57.5c0,3.1-2.6,5.7-5.7,5.7c-1.9,0-3.7-1-4.7-2.5L237.1,115v39.4c0,3.1-2.6,5.7-5.7,5.7s-5.7-2.6-5.7-5.7V96.9
		c0-3.1,2.6-5.7,5.7-5.7c2,0,3.6,0.9,4.6,2.4l29.6,42.9V96.9c0-3.1,2.6-5.7,5.7-5.7S277,93.8,277,96.9z"/>
	<path d="M317.8,92c19.9,0,32.5,9,32.5,33.7s-12.6,33.6-32.5,33.6h-13.5c-3.2,0-5.8-2.6-5.8-5.8V97.8c0-3.2,2.6-5.8,5.8-5.8H317.8z
		 M310.1,148.9h7.7c12.8,0,20.5-5.8,20.5-23.2s-7.7-23.3-20.5-23.3h-7.7V148.9z"/>
	<path d="M367,125.7c0-23.7,11.5-35.1,31.7-35.1s31.7,11.4,31.7,35.1c0,23.4-11.5,35-31.7,35S367,149.1,367,125.7z M379,125.7
		c0,16.5,6.5,24.6,19.7,24.6c13.2,0,19.7-8.1,19.7-24.6c0-16.6-6.5-24.7-19.7-24.7C385.5,101,379,109.1,379,125.7z"/>
	<path d="M461.4,133.5v20.8c0,3.2-2.6,5.8-5.8,5.8s-5.8-2.6-5.8-5.8V97.8c0-3.2,2.6-5.8,5.8-5.8h19.1c13.5,0,21.1,9.6,21.1,20.9
		c0,9.5-5.8,18.7-15.4,19.9l14.8,18c0.9,1.2,1.2,2.4,1.2,3.5c0,3.2-2.6,5.8-5.8,5.8c-1.7,0-3.5-0.8-4.5-2.1l-18.2-24.5H461.4z
		 M461.4,102.4v20.9h13.5c6.2,0,8.9-5.1,8.9-10.4c0-5.4-2.7-10.5-9.2-10.5H461.4z"/>
	<path d="M87.2,277.3c-2.9,0-5.2-2.3-5.2-5.2c0-1.1,0.4-2.3,1-3.1l33.6-48.8H89.1c-2.8,0-5.1-2.3-5.1-5.1c0-2.8,2.3-5.1,5.1-5.1
		h37.8c2.8,0,5.1,2.3,5.1,5.1c0,0.9-0.2,1.9-0.9,2.9l-33.5,48.9h30.5c2.9,0,5.2,2.3,5.2,5.2c0,2.9-2.3,5.2-5.2,5.2H87.2z"/>
	<path d="M173.6,219c-8.3,0-11.4,3.9-11.4,7.9c0,13.1,36.5,7,36.5,32c0,12.2-8.6,19.8-25.1,19.8c-11.9,0-21.4-5.9-25.3-12.2
		c-0.5-0.8-0.8-1.8-0.8-2.8c0-3,2.4-5.4,5.3-5.4c2.2,0,3.4,1.2,4.4,2.2c4.2,4.2,9.5,7.6,16.4,7.6c9.1,0,13.5-3,13.5-9.2
		c0-14.6-36.5-7.9-36.5-32c0-9.9,7.1-18.3,23-18.3c10,0,18.7,3.7,22.7,9.4c0.6,0.9,1,2,1,3.2c0,2.9-2.4,5.3-5.4,5.3
		c-1.4,0-2.8-0.8-4.3-2.2C184.5,221.3,179.3,219,173.6,219z"/>
	<path d="M215.3,243.7c0-23.7,11.5-35.1,31.7-35.1s31.7,11.4,31.7,35.1c0,23.4-11.5,35-31.7,35S215.3,267.1,215.3,243.7z
		 M227.3,243.7c0,16.5,6.5,24.6,19.7,24.6s19.7-8.1,19.7-24.6c0-16.6-6.5-24.7-19.7-24.7S227.3,227.1,227.3,243.7z"/>
	<path d="M333.4,266.5c3.3,0,5.6,2.4,5.6,5.4c0,3.1-2.3,5.4-5.6,5.4h-29.6c-3.3,0-5.7-2.4-5.7-5.6V215c0-3.2,2.6-5.8,5.8-5.8
		c3.2,0,5.8,2.6,5.8,5.8v51.5H333.4z"/>
	<path d="M371.3,220.2v52.1c0,3.2-2.6,5.8-5.8,5.8s-5.8-2.6-5.8-5.8v-52.1h-15.3c-2.8,0-5.1-2.3-5.1-5.1c0-2.8,2.3-5.1,5.1-5.1h42.2
		c2.8,0,5.1,2.3,5.1,5.1c0,2.8-2.3,5.1-5.1,5.1H371.3z"/>
	<path class="st0" d="M346,389.6c0-4.5,2.4-6.7,6.6-6.7s6.5,2.2,6.5,6.7c0,4.4-2.3,6.5-6.5,6.5S346,394,346,389.6z"/>
	<path class="st0" d="M431.6,390.3c0,3.2-2.6,5.8-5.8,5.8s-5.8-2.6-5.8-5.8v-24.1h-28.6v24.1c0,3.2-2.6,5.8-5.8,5.8
		s-5.8-2.6-5.8-5.8V333c0-3.2,2.6-5.8,5.8-5.8s5.8,2.6,5.8,5.8v22.6H420V333c0-3.2,2.6-5.8,5.8-5.8s5.8,2.6,5.8,5.8V390.3z"/>
	<path class="st0" d="M453.6,373.3V333c0-3.2,2.6-5.8,5.8-5.8s5.8,2.6,5.8,5.8v40.3c0,6.1,2.3,13.2,13.6,13.2s13.6-7.1,13.6-13.2
		V333c0-3.2,2.6-5.8,5.8-5.8s5.8,2.6,5.8,5.8v40.3c0,11.4-5,23.4-25.2,23.4S453.6,384.7,453.6,373.3z"/>
	<path d="M108.6,444.6c14.5,0,23.1,8.2,23.1,20.5c0,21.1-34.7,29.2-34.7,38h30.7c2.8,0,5.1,2.3,5.1,5.1s-2.3,5.1-5.1,5.1H89.5
		c-2.8,0-5.1-2.3-5.1-5.1c0-22.1,35.9-24.4,35.9-43.1c0-5.6-4.1-10.5-11.7-10.5c-6.2,0-9.6,3.4-11.4,7.2c-1.1,2.1-2.9,3.2-5,3.2
		c-3,0-5.4-2.4-5.4-5.4c0-0.8,0.1-1.4,0.5-2.3C90.5,450,97.6,444.6,108.6,444.6z"/>
	<path d="M202.5,479.6c0,24-8.3,35.1-26.1,35.1c-18,0-26.2-11.1-26.2-35.1c0-23.9,8.2-35,26.2-35
		C194.2,444.6,202.5,455.7,202.5,479.6z M191.1,479.6c0-17.4-4.4-25-14.7-25c-10.3,0-14.8,7.6-14.8,25c0,17.6,4.5,25,14.8,25
		C186.7,504.6,191.1,497.2,191.1,479.6z"/>
	<path d="M245,444.6c14.5,0,23.1,8.2,23.1,20.5c0,21.1-34.7,29.2-34.7,38h30.7c2.8,0,5.1,2.3,5.1,5.1s-2.3,5.1-5.1,5.1h-38.2
		c-2.8,0-5.1-2.3-5.1-5.1c0-22.1,35.9-24.4,35.9-43.1c0-5.6-4.1-10.5-11.7-10.5c-6.2,0-9.6,3.4-11.4,7.2c-1.1,2.1-2.9,3.2-5,3.2
		c-3,0-5.4-2.4-5.4-5.4c0-0.8,0.1-1.4,0.5-2.3C226.9,450,234,444.6,245,444.6z"/>
	<path d="M294.2,456.2c-2.8,0-5.1-2.3-5.1-5.1s2.3-5.1,5.1-5.1h32c2.8,0,5.1,2.3,5.1,5.1c0,1.1-0.3,2.3-1.3,3.4L315.4,471
		c14.1,1.6,18.4,11.4,18.4,22c0,13.7-8.3,21.6-24.6,21.6c-10.4,0-18.6-5-22.9-11.1c-0.6-0.9-0.9-1.9-0.9-3c0-2.9,2.4-5.3,5.3-5.3
		c1.8,0,3.1,0.7,4.8,2.6c3.4,3.9,7.2,6.8,13.7,6.8c9,0,13.2-4.5,13.2-11.6c0-7-2.9-12-11.9-12h-6.2c-3.1,0-5.4-2.3-5.4-5.2
		c0-1.6,0.5-2.5,1.3-3.5l14.1-16.1H294.2z"/>
</g>
</svg>
